<svg width="32" height="32" viewBox="0 0 32 32" fill="#000000" xmlns="http://www.w3.org/2000/svg">
<path d="M5.33331 16C5.33331 15.2636 5.93027 14.6667 6.66665 14.6667H20C20.7364 14.6667 21.3333 15.2636 21.3333 16C21.3333 16.7364 20.7364 17.3333 20 17.3333H6.66665C5.93027 17.3333 5.33331 16.7364 5.33331 16ZM5.33331 9.33333C5.33331 8.59695 5.93027 8 6.66665 8H25.3333C26.0697 8 26.6666 8.59695 26.6666 9.33333C26.6666 10.0697 26.0697 10.6667 25.3333 10.6667H6.66665C5.93027 10.6667 5.33331 10.0697 5.33331 9.33333ZM5.33331 22.6667C5.33331 23.403 5.93027 24 6.66665 24H13.6466C14.383 24 14.98 23.403 14.98 22.6667C14.98 21.9303 14.383 21.3333 13.6466 21.3333H6.66665C5.93027 21.3333 5.33331 21.9303 5.33331 22.6667Z" fill="#000000"/>
</svg>
